<svg xmlns="http://www.w3.org/2000/svg" viewBox="0 0 432.6 428.37"><defs><style>.cls-1{fill:#f10200;}</style></defs><g id="Web"><path class="cls-1" d="M216.3,43A171.19,171.19,0,1,0,387.49,214.18,171.18,171.18,0,0,0,216.3,43Zm-65.86,97.58a20.06,20.06,0,1,1-20.05,20.06A20.06,20.06,0,0,1,150.44,140.58ZM300,301.38a5.49,5.49,0,0,1-7.76-.57c-22.73-26.32-47.38-39.67-73.26-39.67h-.27c-44.13.16-77.91,39.24-78.25,39.64a5.5,5.5,0,0,1-8.38-7.12c1.5-1.77,37.28-43.29,86.51-43.52h.39c29.22,0,56.67,14.63,81.59,43.48A5.51,5.51,0,0,1,300,301.38ZM282.15,180.52a20.06,20.06,0,1,1,20.06-20.06A20.06,20.06,0,0,1,282.15,180.52Z"/></g></svg>