<svg xmlns="http://www.w3.org/2000/svg" viewBox="0 0 432.6 428.37"><defs><style>.cls-1{fill:#5fd400;}</style></defs><g id="Web"><path class="cls-1" d="M216.31,43A171.19,171.19,0,1,0,387.49,214.18,171.18,171.18,0,0,0,216.31,43Zm-65.86,97.58a20.06,20.06,0,1,1-20.07,20.06A20.06,20.06,0,0,1,150.45,140.58ZM300.53,274.71c-24.93,28.85-52.36,43.48-81.58,43.48h-.39c-49.23-.23-85-41.75-86.52-43.52a5.5,5.5,0,1,1,8.39-7.11c.51.59,34.24,39.47,78.25,39.63H219c25.88,0,50.52-13.35,73.26-39.67a5.5,5.5,0,1,1,8.32,7.19Zm-18.37-94.19a20.06,20.06,0,1,1,20.06-20.06A20.06,20.06,0,0,1,282.16,180.52Z"/></g></svg>