<svg xmlns="http://www.w3.org/2000/svg" viewBox="0 0 300 300"><defs><style>.cls-1{fill:#e31013;}</style></defs><g id="Texto"><path d="M148.08,199.38H91.53L83.45,235H50.66L90.34,68.69h58.93L189,235H156.16Zm-49.9-29.94h43L121.94,84.37h-4.27Z"/><path class="cls-1" d="M249.34,87.55a22.33,22.33,0,0,1-1.78,8.91,21.61,21.61,0,0,1-4.87,7.13,23.86,23.86,0,0,1-7.25,4.75,21.78,21.78,0,0,1-8.67,1.79,21.49,21.49,0,0,1-8.79-1.79,24,24,0,0,1-7.13-4.75A21.31,21.31,0,0,1,206,96.46a23.07,23.07,0,0,1,0-17.82,21.52,21.52,0,0,1,4.87-7.13A24.42,24.42,0,0,1,218,66.76,21.48,21.48,0,0,1,226.77,65a21.77,21.77,0,0,1,8.67,1.78,24.23,24.23,0,0,1,7.25,4.75,21.82,21.82,0,0,1,4.87,7.13A22.4,22.4,0,0,1,249.34,87.55Z"/></g></svg>