<svg xmlns="http://www.w3.org/2000/svg" viewBox="0 0 422.81 58.25"><defs><style>.cls-1{fill:#ab2c79;}</style></defs><g id="App"><path d="M34.78,48.74H15.91l-3,8.93H0L18.29,7.13H32.54L50.83,57.67h-13Zm-3.17-9.5-6.27-18.5-6.19,18.5Z"/><path d="M57.28,11.41A6.17,6.17,0,0,1,55.22,6.7a6.26,6.26,0,0,1,2.06-4.79,8.18,8.18,0,0,1,10.51,0,6.26,6.26,0,0,1,2,4.79,6.16,6.16,0,0,1-2,4.71,7.38,7.38,0,0,1-5.22,1.91A7.45,7.45,0,0,1,57.28,11.41ZM68.69,17.5V57.67H56.38V17.5Z"/><path d="M95.33,19a14,14,0,0,1,7.2-1.91v13H99.14q-4.61,0-6.91,2T89.93,39V57.67H77.62V17.5H89.93v6.69A16.2,16.2,0,0,1,95.33,19Z"/><path d="M171.61,21.6Q176,26.13,176,34.2V57.67H163.8V35.86a8.3,8.3,0,0,0-2.05-6,8.6,8.6,0,0,0-11.31,0,8.35,8.35,0,0,0-2.05,6V57.67H136.15V35.86a8.3,8.3,0,0,0-2.05-6,8.59,8.59,0,0,0-11.3,0,8.31,8.31,0,0,0-2.06,6V57.67H108.43V17.5h12.31v5a13.15,13.15,0,0,1,4.9-4,15.44,15.44,0,0,1,6.84-1.48,16.62,16.62,0,0,1,8.1,2,13.9,13.9,0,0,1,5.58,5.54,16.14,16.14,0,0,1,5.69-5.4,15.38,15.38,0,0,1,7.85-2.09Q167.19,17.06,171.61,21.6Z"/><path d="M192.35,55.73a18.42,18.42,0,0,1-7.42-7.2,21.53,21.53,0,0,1-2.7-11A21.26,21.26,0,0,1,185,26.68a18.5,18.5,0,0,1,7.49-7.24,23.79,23.79,0,0,1,21.31,0,18.48,18.48,0,0,1,7.48,7.24A21.26,21.26,0,0,1,224,37.58a21.1,21.1,0,0,1-2.77,10.91,18.74,18.74,0,0,1-7.56,7.24A22.6,22.6,0,0,1,203,58.25,22.15,22.15,0,0,1,192.35,55.73ZM209,45q2.47-2.59,2.48-7.42t-2.41-7.41a8.2,8.2,0,0,0-11.92,0q-2.37,2.57-2.37,7.45T197.1,45A7.56,7.56,0,0,0,203,47.59,8,8,0,0,0,209,45Z"/><path d="M266.29,21.64q4.21,4.56,4.21,12.56V57.67H258.26V35.86a8.8,8.8,0,0,0-2.09-6.27,8.18,8.18,0,0,0-11.23,0,8.84,8.84,0,0,0-2.09,6.27V57.67H230.54V17.5h12.31v5.32a13,13,0,0,1,5-4.21A16.08,16.08,0,0,1,255,17.06Q262.09,17.06,266.29,21.64Z"/><path d="M280,11.41a6.16,6.16,0,0,1-2.05-4.71A6.26,6.26,0,0,1,280,1.91,7.47,7.47,0,0,1,285.26,0a7.38,7.38,0,0,1,5.22,1.91,6.26,6.26,0,0,1,2,4.79,6.16,6.16,0,0,1-2,4.71,7.38,7.38,0,0,1-5.22,1.91A7.47,7.47,0,0,1,280,11.41Zm11.41,6.09V57.67H279.07V17.5Z"/><path d="M322.7,47.23V57.67h-6.26q-6.7,0-10.44-3.27t-3.75-10.7v-16h-4.89V17.5h4.89V7.7h12.32v9.8h8.06V27.72h-8.06V43.85a3.36,3.36,0,0,0,.86,2.59,4.22,4.22,0,0,0,2.88.79Z"/><path d="M337.21,55.73a18.42,18.42,0,0,1-7.42-7.2,21.53,21.53,0,0,1-2.7-11,21.26,21.26,0,0,1,2.74-10.9,18.5,18.5,0,0,1,7.49-7.24,23.79,23.79,0,0,1,21.31,0,18.57,18.57,0,0,1,7.49,7.24,21.36,21.36,0,0,1,2.73,10.9,21.1,21.1,0,0,1-2.77,10.91,18.74,18.74,0,0,1-7.56,7.24,22.6,22.6,0,0,1-10.69,2.52A22.15,22.15,0,0,1,337.21,55.73ZM353.84,45q2.49-2.59,2.49-7.42t-2.42-7.41a8.18,8.18,0,0,0-11.91,0q-2.38,2.57-2.38,7.45T342,45a7.57,7.57,0,0,0,5.87,2.59A8,8,0,0,0,353.84,45Z"/><path d="M393.12,19a14,14,0,0,1,7.2-1.91v13h-3.39q-4.6,0-6.91,2c-1.54,1.32-2.3,3.63-2.3,6.94V57.67H375.4V17.5h12.32v6.69A16.2,16.2,0,0,1,393.12,19Z"/><path class="cls-1" d="M422.81,6.72a6.75,6.75,0,0,1-.53,2.66,6.6,6.6,0,0,1-1.45,2.12,7.43,7.43,0,0,1-2.16,1.42,6.59,6.59,0,0,1-2.59.53,6.44,6.44,0,0,1-2.61-.53,7.28,7.28,0,0,1-2.13-1.42,6.45,6.45,0,0,1-1.45-2.12,6.92,6.92,0,0,1,0-5.31A6.35,6.35,0,0,1,411.34,2,7.09,7.09,0,0,1,413.47.53,6.44,6.44,0,0,1,416.08,0a6.59,6.59,0,0,1,2.59.53A7.23,7.23,0,0,1,420.83,2a6.5,6.5,0,0,1,1.45,2.12A6.74,6.74,0,0,1,422.81,6.72Z"/></g></svg>